<svg width="800" height="800" viewBox="0 0 800 800" fill="none" xmlns="http://www.w3.org/2000/svg">
<path d="M291.667 116.667V66.667C291.667 53.0003 280.333 41.667 266.667 41.667C253 41.667 241.667 53.0003 241.667 66.667V118.667C250 117.667 257.667 116.667 266.667 116.667H291.667Z" fill="#494949"/>
<path d="M558.333 118.667V66.667C558.333 53.0003 547 41.667 533.333 41.667C519.667 41.667 508.333 53.0003 508.333 66.667V116.667H533.333C542.333 116.667 550 117.667 558.333 118.667Z" fill="#494949"/>
<path d="M558.333 118.667V166.667C558.333 180.334 547 191.667 533.333 191.667C519.667 191.667 508.333 180.334 508.333 166.667V116.667H291.667V166.667C291.667 180.334 280.333 191.667 266.667 191.667C253 191.667 241.667 180.334 241.667 166.667V118.667C143.333 127.667 100 191 100 283.334V566.667C100 666.667 150 733.334 266.667 733.334H533.333C650 733.334 700 666.667 700 566.667V283.334C700 191 656.667 127.667 558.333 118.667ZM400 558.334H266.667C253 558.334 241.667 547 241.667 533.334C241.667 519.667 253 508.334 266.667 508.334H400C413.667 508.334 425 519.667 425 533.334C425 547 413.667 558.334 400 558.334ZM533.333 391.667H266.667C253 391.667 241.667 380.334 241.667 366.667C241.667 353 253 341.667 266.667 341.667H533.333C547 341.667 558.333 353 558.333 366.667C558.333 380.334 547 391.667 533.333 391.667Z" fill="#FCC000"/>
</svg>
